<svg enable-background="new 0 0 512 512" viewBox="0 0 512 512" xmlns="http://www.w3.org/2000/svg"><path d="m508.333 32.666c0-16.316-13.349-29.666-29.665-29.666h-449.636c-14.684 0-26.699 12.015-26.699 26.699v452.602c0 14.684 12.015 26.699 26.699 26.699h449.635c16.316 0 29.666-13.35 29.666-29.666z" fill="#597b91"/><path d="m478.668 488.915h-449.636c-14.684 0-26.699-12.015-26.699-26.699v20.085c0 14.684 12.015 26.699 26.699 26.699h449.635c16.316 0 29.666-13.35 29.666-29.666v-20.085c0 16.316-13.349 29.666-29.665 29.666z" fill="#2b5770"/><g fill="#fff"><path d="m256.235 157.56c21.702 0 36.816-15.114 36.816-34.878s-15.114-34.878-36.816-34.878c-21.314 0-36.428 15.114-36.428 34.878 0 19.765 15.114 34.878 36.428 34.878z"/><path d="m298.915 384.123c-6.235 0-11.289-5.054-11.289-11.289v-176.52l-.019.009v-1.754c0-9.047-10.095-14.412-17.598-9.359-16.213 10.919-43.483 24.705-81.334 26.927-5.951.349-10.588 5.301-10.588 11.262v13.396c0 6.487 5.458 11.624 11.936 11.277 7.858-.421 15.399-1.245 22.616-2.387 6.825-1.08 12.982 4.25 12.982 11.16v115.988c0 6.235-5.054 11.289-11.289 11.289h-2.963c-6.235 0-11.289 5.054-11.289 11.289v13.367c0 6.235 5.054 11.289 11.289 11.289h89.012c6.235 0 11.289-5.054 11.289-11.289v-13.367c0-6.235-5.054-11.289-11.289-11.289h-1.466z"/></g></svg>